<svg width="74" height="65" viewBox="0 0 74 65" fill="none" xmlns="http://www.w3.org/2000/svg">
<path d="M54.484 2.97238C52.2369 1.83594 49.7663 0.966219 47.2369 1.00101C45.2369 1.0358 43.2958 1.62721 41.3428 2.10266C33.8016 3.93487 25.8016 3.96966 18.5663 6.74118C7.29576 11.0318 -1.09248 23.2659 1.46047 34.9086C3.35458 43.5478 10.3428 50.0766 16.9781 56.0255C22.0722 60.5944 28.4605 65.4996 35.1193 63.7718C40.3075 62.4266 43.5428 57.5098 47.6722 54.1353C51.1546 51.2826 55.4134 49.4736 58.9899 46.7484C62.9663 43.7102 65.9899 39.6515 68.9546 35.6392C70.6487 33.3431 72.3899 30.9659 72.9781 28.1943C73.9664 23.6022 69.3781 18.9869 67.2134 15.1601C64.2958 9.99974 59.8252 5.67432 54.484 2.97238Z" fill="#ADC59D" stroke="black" stroke-width="0.75" stroke-miterlimit="10"/>
<path d="M42.4486 22.6167C41.3663 21.2367 39.6839 20.4598 38.0486 19.8104C35.5545 18.8131 32.7074 17.9666 30.2251 18.9986C28.1192 19.8684 26.6839 22.1065 26.778 24.3561C26.8016 24.9707 26.9427 25.5853 27.2486 26.1188C27.5192 26.5826 27.9192 26.9653 28.3545 27.2784C31.5545 29.6557 36.4722 28.8439 39.4957 31.4415C41.1074 32.833 41.8604 34.9552 42.3545 37.0077C42.5663 37.889 42.7427 38.8283 42.4722 39.6865C41.9898 41.2404 40.3075 42.0405 38.7545 42.5971C36.9427 43.2581 35.0369 43.8263 33.1074 43.722C30.5898 43.5944 28.2251 42.3304 26.4251 40.591C24.6251 38.8515 23.3192 36.6714 22.2251 34.4333" stroke="#040000" stroke-width="0.5" stroke-miterlimit="10" stroke-linecap="round"/>
<path d="M38.4018 13.1777C37.2606 16.9001 36.743 20.7849 35.9077 24.5885C34.1783 32.416 31.0371 40.0232 30.79 48.0246" stroke="#040000" stroke-width="0.5" stroke-miterlimit="10" stroke-linecap="round"/>
</svg>
