<svg width="22" height="22" viewBox="0 0 22 22" fill="none" xmlns="http://www.w3.org/2000/svg">
<g clip-path="url(#clip0_850_295)">
<path d="M14.8112 12.5142C14.0887 15.1673 12.5118 16.8555 10.7874 16.6659C8.77097 16.4451 7.656 13.7722 8.13862 10.3165C8.33794 8.89326 8.79687 7.56469 9.4319 6.5705C10.2554 5.28569 11.3544 4.6167 12.4542 4.73652C14.4706 4.95732 15.5856 7.63016 15.103 11.086C15.0311 11.584 14.9342 12.0624 14.8112 12.5142Z" fill="#FF0000"/>
<path d="M10.0372 10.7268C9.42012 12.9931 7.09679 14.465 4.71299 14.0398C2.23001 13.5988 0.606077 11.2584 1.09553 8.8275C1.58617 6.40381 4.00476 4.77785 6.4898 5.22289C8.97483 5.66792 10.5958 8.00753 10.1064 10.4384C10.086 10.5364 10.0626 10.6336 10.0372 10.7268ZM3.95797 9.26868C3.95184 9.29118 3.94571 9.31368 3.94339 9.33374C3.802 10.0372 4.4406 10.7672 5.34151 10.9255C6.24154 11.087 7.13615 10.6235 7.2632 9.92652C7.40459 9.22303 6.76599 8.49306 5.86508 8.33477C4.99138 8.18021 4.13917 8.60325 3.95797 9.26868Z" fill="#FF0000"/>
<path d="M20.8353 13.574C20.2181 15.8403 17.8948 17.3122 15.511 16.887C13.028 16.4459 11.4041 14.1056 11.8936 11.6747C12.3842 9.25097 14.8028 7.62502 17.2878 8.07005C19.7729 8.51509 21.3939 10.8547 20.9044 13.2856C20.884 13.3836 20.8607 13.4808 20.8353 13.574ZM14.756 12.1158C14.7499 12.1383 14.7437 12.1608 14.7414 12.1809C14.6 12.8844 15.2386 13.6144 16.1395 13.7727C17.0396 13.9342 17.9342 13.4706 18.0612 12.7737C18.2026 12.0702 17.564 11.3402 16.6631 11.1819C15.7894 11.0274 14.9372 11.4504 14.756 12.1158Z" fill="#FF0000"/>
</g>
<defs>
<clipPath id="clip0_850_295">
<rect width="22" height="22" fill="white"/>
</clipPath>
</defs>
</svg>
