<svg width="56" height="57" viewBox="0 0 56 57" fill="none" xmlns="http://www.w3.org/2000/svg">
<path d="M1.88329 17.0937C-1.27025 30.218 4.21924 44.9886 15.1749 52.8702C17.8612 54.8085 21.0498 56.3848 24.3552 56.0929C25.8151 55.9644 27.2167 55.4623 28.5949 54.9719C34.2946 52.9402 39.9944 50.9086 45.6941 48.8885C48.5673 47.8727 51.6274 46.6934 53.321 44.1713C54.6525 42.1746 54.9094 39.6759 55.0262 37.2705C55.3299 30.8252 54.8861 24.3564 53.7181 18.0161C49.6068 -4.3208 7.13918 -4.70613 1.88329 17.0937Z" fill="white" stroke="#040000" stroke-width="0.75" stroke-miterlimit="10"/>
<path d="M18.5969 23.9478C16.6114 20.6551 17.5574 15.9261 20.6526 13.6375C23.7477 11.349 28.5481 11.8627 31.106 14.7234C31.6783 15.3656 32.1454 16.1129 32.379 16.942C32.8462 18.6117 32.309 20.3982 31.5381 21.9511C30.7672 23.5041 29.7511 24.9403 29.1788 26.575C28.3378 28.9686 28.5014 31.7009 29.646 33.9661" fill="white"/>
<path d="M18.5969 23.9478C16.6114 20.6551 17.5574 15.9261 20.6526 13.6375C23.7477 11.349 28.5481 11.8627 31.106 14.7234C31.6783 15.3656 32.1454 16.1129 32.379 16.942C32.8462 18.6117 32.309 20.3982 31.5381 21.9511C30.7672 23.5041 29.7511 24.9403 29.1788 26.575C28.3378 28.9686 28.5014 31.7009 29.646 33.9661" stroke="#040000" stroke-width="0.6" stroke-miterlimit="10" stroke-linecap="round"/>
<path d="M32.414 39.1856C32.3556 38.9288 31.9701 38.8704 31.7716 39.0338C31.5613 39.1973 31.5029 39.4892 31.5263 39.7578C31.5847 40.7619 32.6709 41.6143 33.6403 41.3341C34.6098 41.0539 35.0302 39.6177 34.3061 38.9171C33.4067 38.8237 32.4724 38.9988 31.6665 39.4192" fill="white"/>
<path d="M32.414 39.1856C32.3556 38.9288 31.9701 38.8704 31.7716 39.0338C31.5613 39.1973 31.5029 39.4892 31.5263 39.7578C31.5847 40.7619 32.6709 41.6143 33.6403 41.3341C34.6098 41.0539 35.0302 39.6177 34.3061 38.9171C33.4067 38.8237 32.4724 38.9988 31.6665 39.4192" stroke="#040000" stroke-width="0.6" stroke-miterlimit="10" stroke-linecap="round"/>
</svg>
